<?xml version="1.0" encoding="utf-8"?>
<!-- Generator: Adobe Illustrator 18.0.0, SVG Export Plug-In . SVG Version: 6.00 Build 0)  -->
<!DOCTYPE svg PUBLIC "-//W3C//DTD SVG 1.1//EN" "http://www.w3.org/Graphics/SVG/1.1/DTD/svg11.dtd">
<svg version="1.1" id="Layer_1" xmlns="http://www.w3.org/2000/svg" xmlns:xlink="http://www.w3.org/1999/xlink" x="0px" y="0px"
	 viewBox="0 0 28.1 25.9" enable-background="new 0 0 28.1 25.9" xml:space="preserve">
<path fill="#ff7473" d="M20,0.6c-2.3,0-4.6,1.1-6,2.8c-1.5-1.7-3.7-2.8-6-2.8C3.9,0.6,0.7,3.9,0.7,8c0,5,4.5,9.2,11.4,15.4l1.9,1.7
	l1.9-1.8C22.8,17.1,27.4,13,27.4,8C27.4,3.9,24.1,0.6,20,0.6z M14.2,21.4L14,21.5l-0.1-0.1C7.5,15.7,3.3,11.8,3.3,8
	c0-2.7,2-4.7,4.7-4.7c2.1,0,4.1,1.3,4.8,3.2h2.5C16,4.6,18,3.3,20,3.3c2.7,0,4.7,2,4.7,4.7C24.7,11.8,20.5,15.7,14.2,21.4z"/>
</svg>
