<?xml version="1.0" encoding="utf-8"?>
<!-- Generator: Adobe Illustrator 18.0.0, SVG Export Plug-In . SVG Version: 6.00 Build 0)  -->
<!DOCTYPE svg PUBLIC "-//W3C//DTD SVG 1.1//EN" "http://www.w3.org/Graphics/SVG/1.1/DTD/svg11.dtd">
<svg version="1.1" id="Layer_1" xmlns="http://www.w3.org/2000/svg" xmlns:xlink="http://www.w3.org/1999/xlink" x="0px" y="0px"
	 viewBox="0 0 129.9 117.3" enable-background="new 0 0 129.9 117.3" xml:space="preserve">
<path fill="#FFC952" d="M64.9,46.9c-2.3,0-4.6,1.1-6,2.8c-1.5-1.7-3.7-2.8-6-2.8c-4.1,0-7.3,3.2-7.3,7.3c0,5,4.5,9.2,11.4,15.4
	l1.9,1.7l1.9-1.8c6.9-6.2,11.4-10.3,11.4-15.4C72.2,50.1,69,46.9,64.9,46.9z M59,67.6l-0.1,0.1l-0.1-0.1
	c-6.4-5.8-10.5-9.6-10.5-13.4c0-2.7,2-4.7,4.7-4.7c2.1,0,4.1,1.3,4.8,3.2h2.5c0.7-1.8,2.7-3.2,4.8-3.2c2.7,0,4.7,2,4.7,4.7
	C69.6,58.1,65.4,61.9,59,67.6z"/>
</svg>
