<?xml version="1.0" encoding="utf-8"?>
<!-- Generator: Adobe Illustrator 18.0.0, SVG Export Plug-In . SVG Version: 6.00 Build 0)  -->
<!DOCTYPE svg PUBLIC "-//W3C//DTD SVG 1.1//EN" "http://www.w3.org/Graphics/SVG/1.1/DTD/svg11.dtd">
<svg version="1.1" id="Layer_1" xmlns="http://www.w3.org/2000/svg" xmlns:xlink="http://www.w3.org/1999/xlink" x="0px" y="0px"
	 viewBox="0 0 155.9 159.1" enable-background="new 0 0 155.9 159.1" xml:space="preserve">
<line fill="none" stroke="#ffc952" stroke-width="4" stroke-miterlimit="10" x1="101.2" y1="66.3" x2="101.2" y2="71.2"/>
<path fill="none" stroke="#2D2B43" stroke-width="4" stroke-miterlimit="10" d="M86.8,58.1c0,0.3,0,0.6,0,0.9s0,0.6,0,0.9
	c0,0.3,0,0.6,0,0.9s0,0.6,0,0.9c0,0.3,0,0.6,0,0.8c0,0.3,0.1,0.5,0.2,0.8c0.1,0.2,0.3,0.5,0.5,0.7c0.2,0.2,0.4,0.4,0.7,0.5
	c2.1,0,4.3,0,6.4,0c2.1,0,4.3,0,6.4,0c2.1,0,4.3,0,6.4,0s4.3,0,6.4,0c0.2,0,0.5-0.1,0.7-0.2s0.4-0.3,0.6-0.4
	c0.2-0.2,0.3-0.4,0.4-0.6c0.1-0.2,0.2-0.4,0.2-0.7c0-0.1,0-0.2,0-0.3c0-0.1,0-0.2,0-0.3c0-0.1,0-0.2,0-0.3s0-0.2,0-0.3
	c0-0.3,0-0.6,0-0.8c0-0.3,0-0.6,0-0.8s0-0.6,0-0.8c0-0.3,0-0.6,0-0.8"/>
<polyline fill="none" stroke="#2D2B43" stroke-width="4" stroke-miterlimit="10" points="86.2,125.6 86.2,132.2 86.2,133.7
	88.3,134.5 91.1,135.3 93.9,135.9 97,136.4 100.4,136.4 106.8,136.4 115.6,136.4 115.6,124.7 "/>
<path fill="none" stroke="#ffc952" stroke-width="4" stroke-miterlimit="10" d="M68.2,72.8c21.9,0,43.7,0,65.6,0
	c0.1,0,1.5-0.3,2.4,0.7c0.4,0.5,0.6,1,0.6,1.3c0,5.9,0,11.7,0,17.6c-0.1,2.4-0.7,15.4-11.4,25.5c-1.7,1.6-10.9,9.9-24.7,9.8
	c-14.5-0.1-27-9.5-32.3-21c-2-4.4-2.6-8.5-2.8-11.3c0-6.9,0-13.8,0-20.7c0,0-0.2-1,0.5-1.6c0.3-0.3,0.7-0.4,0.9-0.4L68.2,72.8z"/>
<path fill="none" stroke="#ffc952" stroke-width="4" stroke-miterlimit="10" d="M120,29.3c1.4,0,2.9,0,4.3,0
	c1.4,1.2,2.3,3.9,2.2,6.7c0,2.6-0.8,5-2.1,6.2H120"/>
<path fill="none" stroke="#ffc952" stroke-width="4" stroke-miterlimit="10" d="M34.4,52.9c-0.5,0-1.1,0-1.6-0.1
	c-0.5-0.1-1.1-0.1-1.6-0.2c-0.5-0.1-1-0.2-1.6-0.4c-0.5-0.1-1-0.3-1.5-0.5c-0.5-0.2-1-0.4-1.5-0.6c-0.5-0.2-1-0.5-1.4-0.7
	s-0.9-0.5-1.4-0.9c-0.4-0.3-0.9-0.6-1.3-1c-0.4-0.3-0.8-0.7-1.2-1.1c-0.4-0.4-0.7-0.8-1.1-1.2s-0.7-0.8-1-1.2
	c-0.3-0.4-0.6-0.9-0.9-1.3c-0.3-0.4-0.5-0.9-0.8-1.4s-0.5-1-0.7-1.4c-0.2-0.5-0.4-1-0.5-1.5s-0.3-1-0.4-1.5
	c-0.1-0.5-0.2-1.1-0.3-1.6c-0.1-0.5-0.1-1.1-0.1-1.6c0-0.5,0-1.1,0-1.6c0-0.5,0.1-1.1,0.1-1.6c0.1-0.5,0.2-1.1,0.3-1.6
	c0.1-0.5,0.3-1.1,0.4-1.6s0.3-1,0.6-1.5c0.2-0.5,0.4-1,0.7-1.5c0.2-0.5,0.5-0.9,0.8-1.4c0.3-0.4,0.6-0.9,0.9-1.3
	c0.3-0.4,0.7-0.8,1-1.2s0.7-0.8,1.1-1.1c0.4-0.4,0.8-0.7,1.2-1c0.4-0.3,0.8-0.6,1.3-0.9s0.9-0.6,1.3-0.8c0.5-0.3,0.9-0.5,1.4-0.7
	c0.2-0.1,0.5-0.2,0.7-0.3s0.5-0.2,0.8-0.3c0.3-0.1,0.5-0.2,0.8-0.3c0.3-0.1,0.5-0.2,0.8-0.2c0.3-0.1,0.5-0.1,0.8-0.2
	c0.3-0.1,0.5-0.1,0.8-0.2c0.3,0,0.5-0.1,0.8-0.1c0.3,0,0.5,0,0.8-0.1c0.4,0,0.8,0,1.2,0c0.4,0,0.8,0,1.2,0c0.4,0,0.8,0,1.2,0
	c0.4,0,0.8,0,1.2,0c0.4,0,0.8,0,1.2,0c0.4,0,0.8,0,1.2,0c0.4,0,0.8,0,1.2,0c0.4,0,0.8,0,1.2,0c0.8,0,1.6,0,2.4,0c0.8,0,1.6,0,2.4,0
	s1.6,0,2.4,0s1.6,0,2.4,0c0.8,0,1.6,0,2.4,0c0.8,0,1.6,0,2.4,0s1.6,0,2.4,0s1.6,0,2.4,0c0.8,0,1.6,0,2.4,0c0.8,0,1.6,0,2.4,0
	s1.6,0,2.4,0c0.8,0,1.6,0,2.4,0s1.6,0,2.4,0s1.6,0,2.4,0c0.8,0,1.6,0,2.4,0s1.6,0,2.4,0s1.6,0,2.4,0s1.6,0,2.4,0s1.6,0,2.4,0
	c0.8,0,1.6,0,2.4,0s1.6,0,2.4,0c0.8,0,1.6,0,2.4,0s1.6,0,2.4,0s1.6,0,2.4,0c0.3,0,0.5,0,0.8,0c0.3,0,0.5,0,0.8,0s0.5,0,0.8,0
	c0.3,0,0.5,0,0.8,0c0.3,0,0.5,0,0.8,0c0.3,0,0.5,0,0.8,0.1c0.3,0,0.5,0.1,0.8,0.1c0.3,0,0.5,0.1,0.8,0.1c0.3,0.1,0.5,0.1,0.8,0.2
	c0.3,0.1,0.5,0.1,0.8,0.2c0.3,0.1,0.5,0.1,0.8,0.2c0.2,0.1,0.5,0.2,0.7,0.3c0.2,0.1,0.5,0.2,0.7,0.3c0.2,0.1,0.5,0.2,0.7,0.3
	c0.2,0.1,0.5,0.2,0.7,0.4c0.2,0.1,0.5,0.3,0.7,0.4c0.5,0.3,1,0.6,1.5,1c0.5,0.3,0.9,0.7,1.4,1.1c0.4,0.4,0.8,0.8,1.2,1.2
	c0.4,0.4,0.8,0.9,1.1,1.3s0.7,0.9,1,1.4c0.3,0.5,0.6,1,0.9,1.5s0.5,1.1,0.7,1.6s0.4,1.1,0.6,1.7c0,0.1,0,0.1,0.1,0.2
	c0,0.1,0,0.1,0.1,0.2s0,0.1,0.1,0.2c0,0.1,0,0.1,0,0.2c0,0.1,0,0.1,0,0.2c0,0.1,0,0.1,0,0.2c0,0.1,0,0.1,0,0.2c0,0.1,0,0.1,0,0.2
	v3.3v3.3v3.3v3.3v3.3V50v3.3v3.3c-2.2,0-4.5,0-6.7,0c-2.2,0-4.5,0-6.7,0c-2.2,0-4.5,0-6.7,0c-2.2,0-4.5,0-6.7,0s-4.5,0-6.7,0
	c-2.2,0-4.5,0-6.7,0c-2.2,0-4.5,0-6.7,0c-2.2,0-4.5,0-6.7,0c-0.6,0.1-1.1,0.3-1.6,0.5c-0.5,0.2-1,0.4-1.5,0.7
	c-0.5,0.3-1,0.6-1.4,0.9c-0.4,0.3-0.9,0.7-1.3,1.1s-0.8,0.8-1.1,1.2c-0.3,0.4-0.7,0.9-0.9,1.4c-0.3,0.5-0.5,1-0.7,1.5
	c-0.2,0.5-0.4,1.1-0.5,1.6c0,1.1,0,2.1,0,3.2c0,1.1,0,2.1,0,3.2c0,1.1,0,2.1,0,3.2s0,2.1,0,3.2c0,1.1,0,2.1,0,3.2c0,1.1,0,2.1,0,3.2
	c0,1.1,0,2.1,0,3.2c0,1.1,0,2.1,0,3.2c0,0.2,0,0.4,0,0.5c0,0.2,0,0.4,0,0.5c0,0.2,0,0.4,0,0.5c0,0.2,0,0.4,0,0.5s0,0.4,0,0.5
	s0,0.4,0,0.5s0,0.4,0,0.5c0,0.2,0,0.4,0,0.5c0,0.1,0,0.2,0,0.2s0,0.2,0,0.2s0,0.2,0,0.2c0,0.1,0,0.2,0,0.2c0,0.1,0,0.2,0,0.2
	c0,0.1,0,0.2,0,0.2c0,0.1,0,0.2,0,0.2s0,0.2,0,0.2c0,0.2,0.1,0.5,0.1,0.7c0,0.2,0.1,0.5,0.1,0.7s0.1,0.5,0.1,0.7
	c0,0.2,0.1,0.5,0.1,0.7c0,0.2,0.1,0.5,0.2,0.7c0.1,0.2,0.1,0.5,0.2,0.7c0.1,0.2,0.1,0.5,0.2,0.7c0.1,0.2,0.1,0.5,0.2,0.7
	c0.2,0.7,0.4,1.4,0.6,2.1c0.2,0.7,0.4,1.4,0.7,2c0.2,0.7,0.5,1.3,0.8,2c0.3,0.7,0.6,1.3,0.9,2c0.3,0.6,0.6,1.3,1,1.9
	c0.3,0.6,0.7,1.3,1,1.9c0.4,0.6,0.7,1.2,1.1,1.8s0.8,1.2,1.2,1.8c0.5,0.7,1.1,1.4,1.6,2.1c0.6,0.7,1.2,1.4,1.8,2s1.2,1.3,1.9,1.9
	c0.6,0.6,1.3,1.2,2,1.8s1.4,1.1,2.1,1.7c0.7,0.5,1.5,1,2.2,1.5c0.7,0.5,1.5,1,2.3,1.4c0.8,0.4,1.6,0.9,2.4,1.3
	c0.5,0.3,1.1,0.5,1.7,0.8c0.6,0.2,1.1,0.5,1.7,0.7c0.6,0.2,1.1,0.4,1.7,0.6c0.6,0.2,1.2,0.4,1.7,0.6c0.6,0.2,1.2,0.4,1.8,0.5
	c0.6,0.2,1.2,0.3,1.8,0.4c0.6,0.1,1.2,0.3,1.8,0.4c0.6,0.1,1.2,0.2,1.8,0.3c0,0,0.1,0,0.1,0c0,0,0.1,0,0.1,0s0.1,0,0.1,0
	s0.1,0,0.1,0c0,0,0.1,0,0.1,0c0,0,0.1,0,0.1,0c0,0,0.1,0,0.1,0s0.1,0,0.1,0c1.5,0,3,0,4.5,0s3,0,4.5,0s3,0,4.5,0c1.5,0,3,0,4.5,0
	s3,0,4.5,0s3,0,4.5,0s3,0,4.5,0c1.5,0,3,0,4.5,0c0.3,0.1,0.6,0.2,0.8,0.3s0.5,0.3,0.8,0.4c0.2,0.2,0.5,0.3,0.7,0.5
	c0.2,0.2,0.4,0.4,0.6,0.6c0.2,0.2,0.3,0.5,0.5,0.7c0.1,0.2,0.3,0.5,0.4,0.8c0.1,0.3,0.2,0.6,0.2,0.8c0,0.3,0.1,0.6,0.1,0.9
	c0,0.3,0,0.6-0.1,0.9c-0.1,0.3-0.1,0.6-0.2,0.8s-0.2,0.5-0.4,0.8c-0.1,0.2-0.3,0.5-0.5,0.7c-0.2,0.2-0.4,0.4-0.6,0.6
	c-0.2,0.2-0.4,0.4-0.7,0.5s-0.5,0.3-0.7,0.4s-0.5,0.2-0.8,0.3c-4.7,0-9.4,0-14.2,0c-4.7,0-9.4,0-14.2,0c-4.7,0-9.4,0-14.2,0
	c-4.7,0-9.4,0-14.2,0c-4.7,0-9.4,0-14.2,0s-9.4,0-14.2,0s-9.4,0-14.2,0s-9.4,0-14.2,0c-0.5-0.1-1-0.3-1.4-0.5
	c-0.4-0.2-0.9-0.5-1.3-0.7s-0.8-0.6-1.1-1c-0.3-0.4-0.6-0.7-0.9-1.1c-0.3-0.4-0.5-0.8-0.7-1.3s-0.3-0.9-0.4-1.4
	c-0.1-0.5-0.1-1-0.1-1.5s0.1-1,0.2-1.5c0.1-0.2,0.1-0.5,0.2-0.7c0.1-0.2,0.2-0.5,0.3-0.7s0.2-0.4,0.3-0.7c0.1-0.2,0.2-0.4,0.4-0.6
	s0.3-0.4,0.4-0.6c0.2-0.2,0.3-0.4,0.5-0.5s0.4-0.3,0.5-0.5s0.4-0.3,0.6-0.4c0.1-0.1,0.2-0.1,0.3-0.2s0.2-0.1,0.3-0.2
	c0.1-0.1,0.2-0.1,0.3-0.2c0.1-0.1,0.2-0.1,0.3-0.1c0.1,0,0.2-0.1,0.3-0.1s0.2-0.1,0.4-0.1c0.1,0,0.2-0.1,0.4-0.1s0.2-0.1,0.4-0.1
	c0.1,0,0.3-0.1,0.4-0.1s0.3,0,0.4,0c0.1,0,0.3,0,0.4,0c0.1,0,0.3,0,0.4,0c0.1,0,0.3,0,0.4,0c0.1,0,0.3,0,0.4,0c0.1,0,0.3,0,0.4,0
	c0.1,0,0.3,0,0.4,0c0.1,0,0.3,0,0.4,0c0.1,0,0.3,0,0.4,0c0.1,0,0.3,0,0.4,0c0.1,0,0.3,0,0.4-0.1c0.1,0,0.3-0.1,0.4-0.1
	c0.1,0,0.3-0.1,0.4-0.1c0.1,0,0.3-0.1,0.4-0.2s0.3-0.1,0.4-0.2c0.1-0.1,0.2-0.2,0.4-0.3c0.1-0.1,0.2-0.2,0.3-0.3
	c0.1-0.1,0.2-0.2,0.3-0.3c0.1-0.1,0.2-0.2,0.3-0.3s0.2-0.2,0.3-0.4s0.2-0.3,0.2-0.4c0.1-0.1,0.1-0.3,0.2-0.4
	c0.1-0.1,0.1-0.3,0.2-0.4c0.5-2.8,1-5.6,1.6-8.4c0.5-2.8,1-5.6,1.6-8.4c0.5-2.8,1-5.6,1.6-8.4c0.5-2.8,1-5.6,1.6-8.4
	c0.5-2.8,1-5.6,1.6-8.4c0.5-2.8,1-5.6,1.6-8.4c0.5-2.8,1-5.6,1.6-8.4c0.5-2.8,1-5.6,1.6-8.4c0.1-0.3,0.2-0.6,0.3-1
	c0.1-0.3,0.1-0.7,0.1-1c0-0.3,0-0.7,0-1c0-0.3-0.1-0.7-0.2-1c-0.1-0.3-0.2-0.6-0.3-0.9c-0.1-0.3-0.3-0.6-0.5-0.9
	c-0.2-0.3-0.4-0.5-0.6-0.8s-0.5-0.5-0.8-0.6c-0.2-0.1-0.4-0.2-0.5-0.3c-0.2-0.1-0.4-0.2-0.6-0.2s-0.4-0.1-0.6-0.2
	c-0.2,0-0.4-0.1-0.6-0.1S36.4,53,36.2,53c-0.2,0-0.4,0-0.6,0c-0.2,0-0.4,0-0.6,0C34.8,52.9,34.6,52.9,34.4,52.9z"/>
<g>
	<defs>
		<path id="SVGID_1_" d="M72.2,70.7c0.1,4.7,0.2,9.5,0.3,14.2c0.1,1.3,1.2,2.2,2.4,2.2c1.1,0,2.1-0.9,2.3-2c0-1,0-1.9,0-2.9
			c0.1-1.9,1.8-3.2,3.4-3c1.4,0.2,2.5,1.4,2.6,2.9c-0.1,6.2-0.1,12.4-0.2,18.5c-0.1,1.7,1.1,3.1,2.6,3.3c1.6,0.1,3.2-1.3,3.2-3.1
			c0-3.9,0-7.8,0-11.7c0.2-1.3,1.2-2.2,2.5-2.3c1.3-0.1,2.4,0.8,2.7,2c-0.3,2.2,1.3,3.8,2.7,3.8c1.4,0,2.9-1.7,2.6-3.8l0-18.1H72.2z
			"/>
	</defs>
	<clipPath id="SVGID_2_">
		<use xlink:href="#SVGID_1_"  overflow="visible"/>
	</clipPath>
	<rect x="69.7" y="70.5" clip-path="url(#SVGID_2_)" fill="#ECDC12" width="32" height="4.4"/>
	<rect x="69.7" y="74.9" clip-path="url(#SVGID_2_)" fill="#E63742" width="32" height="4.4"/>
	<rect x="69.7" y="79.2" clip-path="url(#SVGID_2_)" fill="#24A7DD" width="32" height="4.4"/>
	<rect x="69.7" y="70.5" clip-path="url(#SVGID_2_)" fill="#55ADD8" width="32" height="4.4"/>
	<rect x="69.7" y="74.9" clip-path="url(#SVGID_2_)" fill="#EF7870" width="32" height="4.4"/>
	<rect x="69.7" y="79.2" clip-path="url(#SVGID_2_)" fill="#F9C155" width="32" height="4.4"/>
	<rect x="69.7" y="83.6" clip-path="url(#SVGID_2_)" fill="#2D2D43" width="32" height="4.4"/>
	<rect x="69.7" y="88" clip-path="url(#SVGID_2_)" fill="#55ADD8" width="32" height="4.4"/>
	<rect x="69.7" y="92.4" clip-path="url(#SVGID_2_)" fill="#EF7870" width="32" height="4.4"/>
	<rect x="69.7" y="96.7" clip-path="url(#SVGID_2_)" fill="#ECDC12" width="32" height="4.4"/>
	<rect x="69.7" y="101.1" clip-path="url(#SVGID_2_)" fill="#E63742" width="32" height="4.4"/>
	<rect x="69.7" y="105.5" clip-path="url(#SVGID_2_)" fill="#24A7DD" width="32" height="4.4"/>
	<rect x="69.7" y="96.7" clip-path="url(#SVGID_2_)" fill="#F9C155" width="32" height="4.4"/>
	<rect x="69.7" y="101.1" clip-path="url(#SVGID_2_)" fill="#2D2D43" width="32" height="4.4"/>
	<rect x="69.7" y="105.5" clip-path="url(#SVGID_2_)" fill="#E5E5E4" width="32" height="4.4"/>
</g>
<g>
	<defs>
		<path id="SVGID_3_" d="M117.7,70.8c0,1.4,0,2.8,0,4.3c0,0.4,0,0.8,0.1,1.2c0.3,0.8,1.2,1.7,2.1,1.7c1.2,0.1,2.5-1.2,2.6-3
			c0.2-0.7,0.7-1.2,1.3-1.3c0.8-0.1,1.6,0.4,1.8,1.3c0,2.8,0,5.6,0,8.4c0.2,1.1,1.2,1.9,2.3,1.9c1.1,0,2-0.7,2.3-1.8
			c0-4.3,0-8.5,0-12.8"/>
	</defs>
	<clipPath id="SVGID_4_">
		<use xlink:href="#SVGID_3_"  overflow="visible"/>
	</clipPath>
	<rect x="108" y="58.2" clip-path="url(#SVGID_4_)" fill="#ECDC12" width="35.3" height="4.1"/>
	<rect x="108" y="62.4" clip-path="url(#SVGID_4_)" fill="#E63742" width="35.3" height="4.1"/>
	<rect x="108" y="66.5" clip-path="url(#SVGID_4_)" fill="#24A7DD" width="35.3" height="4.1"/>
	<rect x="108" y="70.7" clip-path="url(#SVGID_4_)" fill="#55ADD8" width="35.3" height="4.1"/>
	<rect x="108" y="74.8" clip-path="url(#SVGID_4_)" fill="#EF7870" width="35.3" height="4.1"/>
	<rect x="108" y="79" clip-path="url(#SVGID_4_)" fill="#F9C155" width="35.3" height="4.1"/>
	<rect x="108" y="83.1" clip-path="url(#SVGID_4_)" fill="#2D2D43" width="35.3" height="4.1"/>
	<rect x="108" y="87.3" clip-path="url(#SVGID_4_)" fill="#652D90" width="35.3" height="4.1"/>
	<rect x="108" y="91.4" clip-path="url(#SVGID_4_)" fill="#ECDC12" width="35.3" height="4.1"/>
	<rect x="108" y="95.6" clip-path="url(#SVGID_4_)" fill="#E63742" width="35.3" height="4.1"/>
	<rect x="108" y="99.7" clip-path="url(#SVGID_4_)" fill="#24A7DD" width="35.3" height="4.1"/>
	<rect x="108" y="103.9" clip-path="url(#SVGID_4_)" fill="#652D90" width="35.3" height="4.1"/>
</g>
</svg>
