<?xml version="1.0" encoding="utf-8"?>
<!-- Generator: Adobe Illustrator 18.0.0, SVG Export Plug-In . SVG Version: 6.00 Build 0)  -->
<!DOCTYPE svg PUBLIC "-//W3C//DTD SVG 1.1//EN" "http://www.w3.org/Graphics/SVG/1.1/DTD/svg11.dtd">
<svg version="1.1" xmlns="http://www.w3.org/2000/svg" xmlns:xlink="http://www.w3.org/1999/xlink" x="0px" y="0px"
	 viewBox="0 0 500 500" enable-background="new 0 0 500 500" xml:space="preserve">
<g id="Layer_1">
</g>
<g id="backgrounds" display="none">
	<circle display="inline" fill="#662D91" cx="549.5" cy="91.5" r="12.8"/>
	<path display="inline" fill="#669A9A" d="M-89.6,88.7c-0.7-1.4-1.4-3.1-1.4-3.1c-0.5-2.2-1.1-2.2-1.1-2.2c-0.7-0.9-2.9-0.4-2.9-0.4
		c-1.1,0.6-8.9,2.8-10.8,3.3c-1.9,0.5-15.1,4.3-15.1,4.3c-4.1-1.5-14.2-1.6-14.2-1.6c-11-0.4-17.2,2-17.2,2
		c-3.9,2.5-6.2,1.1-6.2,1.1c-2.1,0-3.8-1.4-3.8-1.4c-2.5-2.1-9.3-4.7-9.3-4.7c2.1-0.4,14.5-4.9,14.5-4.9c8.4-2.8,11.6,0.3,11.6,0.3
		c2.8,1.6,8.2,6.2,8.2,6.2c2.5,1.8,3.1-0.7,3.1-0.7c0.1-1.8-0.4-2-4.7-4.2s-5.4-3.1-8.4-3.9c-3-0.8-7-0.3-12.5,0.5
		c-5.5,0.8-19.7,4.1-19.7,4.1l-0.5,0.1c-2.6-0.2-3.2,0.1-3.2,0.1c-2.9,0.3-1.9,3.9-1.9,3.9c1.8,8.3,6.7,14.2,6.7,14.2
		c5,5.4,10.8,4.7,10.8,4.7c4.1,0.1,6.3-3.9,6.3-3.9c1.5-1.8,1.9-5.2,1.9-5.2c2.7,0.6,3.1,1.8,3.1,1.8c1.1,1.2,2.8,4.3,2.8,4.3
		c5.7,9.5,16.3,8.3,16.3,8.3c8.8,0.1,13.2-8.9,13.2-8.9c1.1-1.7,3.6-5.8,3.6-5.8c0.1,0,5.5-2.3,5.5-2.3c4.4-1.1,14.1-5.8,14.1-5.8
		c2-1.2,6.5-3.6,6.5-3.6c1.9,0.2,2.6,6.3,2.8,6.8c0.1,0.5,1.1,2.2,1.7-0.3C-89,89.2-89.6,88.7-89.6,88.7L-89.6,88.7z M-163.6,102.6
		c-1.4,4.1-7.2,2-7.2,2c-5-1.7-7.2-6-8.3-8.5c0-0.1-0.1-0.2-0.1-0.2c-1-2.3-0.9-4.4-0.9-4.4c0.9-1.8,1.1-3,1.1-3
		c0.8,0.1,4.2-1.4,4.2-1.4c6.1,1.6,9.1,4.4,9.1,4.4C-159.7,96.9-163.6,102.6-163.6,102.6L-163.6,102.6z M-127.7,101.2
		c0,0-1.6,11.8-14.3,8.2c0,0-3.4,0.1-5.8-4.9c-0.6-1.3-1-1.9-1.1-2.1c0.5,1.1,0.8,1.9,0.8,1.9c0,0-1.2-2.6-0.8-1.9
		c-0.6-1.3-1.6-3-3-4.6c-0.4-0.4-0.6-0.7-0.8-0.9c-0.5-0.5-1-1.3-0.8-1.8c0,0,0.2-1.6,2.4-2.6c0,0,6-2.7,16.8-0.4
		C-134.3,92.1-125.4,93.9-127.7,101.2L-127.7,101.2z"/>
	<path display="inline" fill="#EDDD12" d="M719.2,151.8c0.1,4.9,0.1,9.8,0.2,14.7c0.7,2.5,3,4.1,5.5,4.1c2.2-0.1,4.3-1.6,5-3.8
		l0.2-14.9"/>
	<rect x="639.7" y="558.7" display="inline" fill="#662D91" width="30.5" height="11.3"/>
	<rect x="639.7" y="558.7" display="inline" fill="#662D91" width="30.5" height="11.3"/>
	<rect x="548.4" y="267" display="inline" fill="#EDDD12" width="9.1" height="21.9"/>
	<rect x="539.3" y="267" display="inline" fill="#E73742" width="9.1" height="21.9"/>
	<rect x="530.2" y="267" display="inline" fill="#27A8DD" width="9.1" height="21.9"/>
	<rect x="521.1" y="267" display="inline" fill="#662D91" width="9.1" height="21.9"/>
	<rect x="511.9" y="267" display="inline" fill="#EDDD12" width="9.1" height="21.9"/>
	<rect x="502.8" y="267" display="inline" fill="#E73742" width="9.1" height="21.9"/>
	<rect x="493.7" y="267" display="inline" fill="#27A8DD" width="9.1" height="21.9"/>
	<rect x="484.6" y="267" display="inline" fill="#662D91" width="9.1" height="21.9"/>
	<rect x="475.5" y="267" display="inline" fill="#EDDD12" width="9.1" height="21.9"/>
	<rect x="466.4" y="267" display="inline" fill="#E73742" width="9.1" height="21.9"/>
	<rect x="457.3" y="267" display="inline" fill="#27A8DD" width="9.1" height="21.9"/>
	<polyline display="inline" fill="#662D91" points="448.2,267 457.3,267 457.3,288.9 448.2,288.9 	"/>
	<path display="inline" fill="none" d="M557.5,288.9c-31.2,0-62.4,0-93.6,0c-5.8-1.2-9.9-5.6-10-10.5c-0.2-5.6,4.8-10.8,11.6-11.4
		h91.6"/>
	<rect x="723.8" y="362.7" display="inline" fill="#0C75BB" width="78.2" height="10.7"/>
	<rect x="723.8" y="373.4" display="inline" fill="#BBBDBF" width="78.2" height="10.7"/>
	<rect x="573.6" y="408" display="inline" fill="#E6E7E8" width="53" height="11.3"/>
	<g display="inline">
		<g>
			<rect x="838.4" y="511.5" fill="#EDDD12" width="102.3" height="10.4"/>
			<rect x="838.4" y="626.1" fill="#662D91" width="102.3" height="10.4"/>
			<g>
				<polygon fill="#662D91" points="660.1,432.4 660.1,432.7 580.4,432.7 580.4,432.4 568.4,432.4 568.4,442.8 670.7,442.8
					670.7,432.4 				"/>
				<rect x="568.4" y="442.8" fill="#EDDD12" width="102.3" height="10.4"/>
				<rect x="568.4" y="453.2" fill="#E73742" width="102.3" height="10.4"/>
				<rect x="568.4" y="463.6" fill="#27A8DD" width="102.3" height="10.4"/>
				<rect x="568.4" y="474" fill="#662D91" width="102.3" height="10.4"/>
				<rect x="568.4" y="484.4" fill="#EDDD12" width="102.3" height="10.4"/>
				<rect x="568.4" y="494.9" fill="#E73742" width="102.3" height="10.4"/>
				<rect x="568.4" y="505.3" fill="#27A8DD" width="102.3" height="10.4"/>
				<path fill="none" d="M586.7,431.6c0.2,10.7,0.4,21.3,0.7,32c0.3,2.8,2.9,5,5.9,4.9c2.7,0,5.2-1.9,5.7-4.5c0-2.1,0-4.3,0-6.4
					c0.3-4.2,4.3-7.1,8.2-6.7c3.3,0.4,6.1,3.1,6.3,6.6c-0.2,13.9-0.4,27.8-0.5,41.6c-0.3,3.8,2.7,7,6.4,7.3c4,0.3,7.8-2.9,7.7-7
					c0-8.8,0-17.5,0-26.3c0.4-2.8,2.9-5,6-5.2c3.1-0.1,5.8,1.8,6.6,4.5c-0.6,4.8,3.2,8.5,6.5,8.5c3.3,0,7.1-3.8,6.4-8.6l0.1-40.7
					H586.7z"/>
			</g>
		</g>
	</g>
	<g display="inline">
		<g>
			<rect x="883.2" y="225.9" fill="#EDDD12" width="102.3" height="10.4"/>
			<rect x="883.2" y="340.4" fill="#662D91" width="102.3" height="10.4"/>
			<g>
				<polygon fill="#662D91" points="705,146.7 705,147 625.3,147 625.3,146.7 613.3,146.7 613.3,157.1 715.6,157.1 715.6,146.7
					"/>
				<rect x="613.3" y="157.1" fill="#EDDD12" width="102.3" height="10.4"/>
				<rect x="613.3" y="167.5" fill="#E73742" width="102.3" height="10.4"/>
				<rect x="613.3" y="177.9" fill="#27A8DD" width="102.3" height="10.4"/>
				<rect x="613.3" y="188.3" fill="#662D91" width="102.3" height="10.4"/>
				<rect x="613.3" y="198.8" fill="#EDDD12" width="102.3" height="10.4"/>
				<rect x="613.3" y="209.2" fill="#E73742" width="102.3" height="10.4"/>
				<rect x="613.3" y="219.6" fill="#27A8DD" width="102.3" height="10.4"/>
				<path fill="none" d="M631.6,145.9c0.2,10.7,0.4,21.3,0.7,32c0.3,2.8,2.9,5,5.9,4.9c2.7,0,5.2-1.9,5.7-4.5c0-2.1,0-4.3,0-6.4
					c0.3-4.2,4.3-7.1,8.2-6.7c3.3,0.4,6.1,3.1,6.3,6.6c-0.2,13.9-0.4,27.8-0.5,41.6c-0.3,3.8,2.7,7,6.4,7.3c4,0.3,7.8-2.9,7.7-7
					c0-8.8,0-17.5,0-26.3c0.4-2.8,2.9-5,6-5.2c3.1-0.1,5.8,1.8,6.6,4.5c-0.6,4.8,3.2,8.5,6.5,8.5c3.3,0,7.1-3.8,6.4-8.6l0.1-40.7
					H631.6z"/>
			</g>
		</g>
	</g>
	<g display="inline">
		<g>
			<rect x="652.3" y="611.2" fill="#EDDD12" width="102.3" height="10.4"/>
			<rect x="652.3" y="725.8" fill="#662D91" width="102.3" height="10.4"/>
			<g>
				<polygon fill="#662D91" points="474,532 474,532.3 394.3,532.3 394.3,532 382.3,532 382.3,542.4 484.6,542.4 484.6,532 				"/>
				<rect x="382.3" y="542.4" fill="#EDDD12" width="102.3" height="10.4"/>
				<rect x="382.3" y="552.8" fill="#E73742" width="102.3" height="10.4"/>
				<rect x="382.3" y="563.3" fill="#27A8DD" width="102.3" height="10.4"/>
				<rect x="382.3" y="573.7" fill="#662D91" width="102.3" height="10.4"/>
				<rect x="382.3" y="584.1" fill="#EDDD12" width="102.3" height="10.4"/>
				<rect x="382.3" y="594.5" fill="#E73742" width="102.3" height="10.4"/>
				<rect x="382.3" y="604.9" fill="#27A8DD" width="102.3" height="10.4"/>
				<path fill="none" d="M400.6,531.2c0.2,10.7,0.4,21.3,0.7,32c0.3,2.8,2.9,5,5.9,4.9c2.7,0,5.2-1.9,5.7-4.5c0-2.1,0-4.3,0-6.4
					c0.3-4.2,4.3-7.1,8.2-6.7c3.3,0.4,6.1,3.1,6.3,6.6c-0.2,13.9-0.4,27.8-0.5,41.6c-0.3,3.8,2.7,7,6.4,7.3c4,0.3,7.8-2.9,7.7-7
					c0-8.8,0-17.5,0-26.3c0.4-2.8,2.9-5,6-5.2c3.1-0.1,5.8,1.8,6.6,4.5c-0.6,4.8,3.2,8.5,6.5,8.5c3.3,0,7.1-3.8,6.4-8.6l0.1-40.7
					H400.6z"/>
			</g>
		</g>
	</g>
</g>
<g id="Rod">
</g>
<g id="Bowl">
	<g>
		<line fill="#662D91" x1="519.2" y1="198.9" x2="519.2" y2="177"/>
	</g>
</g>
<g id="Body">
</g>
<g id="Drips">
	<g>
		<line fill="none" stroke="#2D2B43" stroke-width="10" stroke-miterlimit="10" x1="321.8" y1="212.9" x2="321.8" y2="225"/>
		<path fill="none" stroke="#2D2B43" stroke-width="10" stroke-miterlimit="10" d="M286.3,192.9c0,0.8,0,1.5,0,2.3
			c0,0.8,0,1.5,0,2.3c0,0.8,0,1.5,0,2.3c0,0.8,0,1.5,0,2.3c-0.1,0.7-0.1,1.4,0,2c0.1,0.7,0.3,1.3,0.6,1.9c0.3,0.6,0.7,1.1,1.1,1.6
			c0.5,0.5,1,0.9,1.6,1.2c5.3,0,10.5,0,15.8,0s10.5,0,15.8,0c5.3,0,10.5,0,15.8,0c5.3,0,10.5,0,15.8,0c0.6-0.1,1.1-0.3,1.6-0.6
			c0.5-0.3,1-0.6,1.3-1s0.7-0.9,1-1.4c0.3-0.5,0.5-1.1,0.6-1.6c0-0.2,0.1-0.5,0.1-0.7c0-0.3,0-0.5,0-0.8s0-0.5,0-0.8s0-0.5,0-0.8
			c0-0.7,0-1.4,0-2s0-1.4,0-2s0-1.4,0-2c0-0.7,0-1.4,0-2"/>
		<rect x="115.7" y="117.6" fill="#E6E7E8" width="251.8" height="40.4"/>
		<polyline fill="none" stroke="#BCBEC0" stroke-width="10" stroke-miterlimit="10" points="285.1,357.8 285.1,374 285.1,377.6
			290.2,379.4 297.1,381.4 303.9,382.9 311.5,384.1 319.8,384.1 335.2,384.1 356.8,384.1 356.8,355.7 		"/>
		<path fill="none" stroke="#BCBEC0" stroke-width="10" stroke-miterlimit="10" d="M241,228.7c53.5,0,106.9,0,160.4,0
			c0.3,0,3.7-0.6,5.9,1.8c1.1,1.2,1.3,2.5,1.4,3.2c0,14.3,0,28.7,0,43c-0.2,6-1.6,37.7-27.8,62.3c-4.3,4-26.6,24.2-60.4,23.9
			c-35.4-0.4-66.1-23.1-78.9-51.2c-4.9-10.8-6.4-20.7-6.9-27.5c0-16.9,0-33.7,0-50.6c0-0.1-0.5-2.5,1.2-3.9c0.8-0.7,1.8-0.9,2.2-0.9
			L241,228.7z"/>
		<text transform="matrix(1 0 0 1 185.8602 150.0434)" fill="#2D2B43" font-family="'FiraSans-Book'" font-size="35">MixinAid</text>
		<path fill="none" stroke="#2D2B43" stroke-width="10" stroke-miterlimit="10" d="M367.7,122.6c3.5,0,7.1,0,10.6,0
			c3.4,2.9,5.6,9.4,5.5,16.4c-0.1,6.3-2,12.1-5,15.1h-11"/>
		<path fill="none" stroke="#2D2B43" stroke-width="10" stroke-miterlimit="10" d="M158.2,180.3c-1.3,0-2.6-0.1-3.9-0.2
			s-2.6-0.3-3.9-0.5c-1.3-0.2-2.6-0.5-3.8-0.9s-2.5-0.7-3.7-1.2c-1.2-0.4-2.4-0.9-3.6-1.5c-1.2-0.5-2.3-1.1-3.5-1.8
			c-1.1-0.6-2.2-1.3-3.3-2.1c-1.1-0.7-2.1-1.5-3.1-2.4c-1-0.8-2-1.7-2.9-2.6s-1.8-1.8-2.7-2.8c-0.8-1-1.7-2-2.4-3s-1.5-2.1-2.2-3.2
			c-0.7-1.1-1.3-2.2-1.9-3.4c-0.6-1.2-1.1-2.3-1.6-3.5c-0.5-1.2-0.9-2.4-1.3-3.6c-0.4-1.2-0.7-2.5-1-3.8c-0.3-1.3-0.5-2.6-0.7-3.9
			c-0.2-1.3-0.3-2.6-0.3-4c-0.1-1.3,0-2.6,0-4s0.2-2.6,0.4-3.9c0.2-1.3,0.4-2.6,0.7-3.9s0.6-2.6,1-3.8c0.4-1.3,0.8-2.5,1.3-3.7
			c0.5-1.2,1.1-2.4,1.7-3.6c0.6-1.2,1.2-2.3,1.9-3.4s1.4-2.2,2.2-3.2c0.8-1,1.6-2,2.5-3c0.9-1,1.8-1.9,2.7-2.8
			c0.9-0.9,1.9-1.7,2.9-2.6c1-0.8,2-1.6,3.1-2.3c1.1-0.7,2.2-1.4,3.3-2s2.3-1.2,3.5-1.8c0.6-0.3,1.2-0.5,1.8-0.8s1.2-0.5,1.9-0.7
			c0.6-0.2,1.3-0.5,1.9-0.7s1.3-0.4,1.9-0.6s1.3-0.3,2-0.5s1.3-0.3,2-0.4c0.7-0.1,1.3-0.2,2-0.3c0.7-0.1,1.3-0.1,2-0.1
			c1,0,1.9,0,2.9-0.1c1,0,1.9,0,2.9,0s1.9,0,2.9,0s1.9,0,2.9,0c1,0,1.9,0,2.9,0c1,0,1.9,0,2.9,0c1,0,1.9,0,2.9,0c1,0,1.9,0,2.9,0
			c1.9,0,3.9,0,5.8,0c1.9,0,3.9,0,5.8,0c1.9,0,3.9,0,5.8,0c1.9,0,3.9,0,5.8,0c1.9,0,3.9,0,5.8,0c1.9,0,3.9,0,5.8,0
			c1.9,0,3.9,0,5.8,0c1.9,0,3.9,0,5.8,0c1.9,0,3.9,0,5.8,0s3.9,0,5.8,0c1.9,0,3.9,0,5.8,0c1.9,0,3.9,0,5.8,0c1.9,0,3.9,0,5.8,0
			s3.9,0,5.8,0c1.9,0,3.9,0,5.8,0c1.9,0,3.9,0,5.8,0s3.9,0,5.8,0s3.9,0,5.8,0s3.9,0,5.8,0c1.9,0,3.9,0,5.8,0c1.9,0,3.9,0,5.8,0
			c1.9,0,3.9,0,5.8,0c1.9,0,3.9,0,5.8,0s3.9,0,5.8,0c0.6,0,1.2,0,1.9,0s1.2,0,1.9,0c0.6,0,1.2,0,1.9,0c0.6,0,1.2,0,1.9,0
			c0.6,0,1.2,0,1.8,0.1s1.2,0.1,1.8,0.1c0.6,0.1,1.2,0.1,1.8,0.2c0.6,0.1,1.2,0.2,1.8,0.3c0.6,0.1,1.3,0.3,1.9,0.4
			c0.6,0.2,1.2,0.3,1.9,0.5c0.6,0.2,1.2,0.4,1.8,0.6s1.2,0.4,1.8,0.6c0.6,0.2,1.2,0.5,1.8,0.7c0.6,0.3,1.2,0.5,1.8,0.8
			s1.2,0.6,1.7,0.9c0.6,0.3,1.1,0.6,1.7,0.9c1.2,0.7,2.4,1.5,3.6,2.4s2.3,1.7,3.3,2.7c1.1,0.9,2.1,1.9,3,3c1,1,1.9,2.1,2.7,3.3
			c0.9,1.1,1.7,2.3,2.4,3.5c0.8,1.2,1.5,2.4,2.1,3.7c0.6,1.3,1.2,2.6,1.7,3.9c0.5,1.3,1,2.7,1.4,4.1c0,0.2,0.1,0.3,0.1,0.5
			c0,0.2,0.1,0.3,0.1,0.5c0,0.2,0.1,0.3,0.1,0.5c0,0.2,0.1,0.3,0.1,0.5c0,0.2,0.1,0.3,0.1,0.5c0,0.2,0.1,0.3,0.1,0.5
			s0.1,0.3,0.1,0.5c0,0.2,0.1,0.3,0.1,0.5v8.1v8.1v8.1v8.1v8.1v8.1v8.1v8.1c-5.5,0-10.9,0-16.4,0s-10.9,0-16.4,0s-10.9,0-16.4,0
			s-10.9,0-16.4,0c-5.5,0-10.9,0-16.4,0s-10.9,0-16.4,0s-10.9,0-16.4,0c-5.5,0-10.9,0-16.4,0c-1.4,0.3-2.7,0.7-4,1.1s-2.6,1-3.8,1.7
			c-1.2,0.7-2.4,1.4-3.5,2.2c-1.1,0.8-2.1,1.7-3.1,2.6s-1.9,2-2.7,3s-1.6,2.2-2.3,3.4s-1.3,2.4-1.8,3.7c-0.5,1.3-0.9,2.6-1.3,4
			c0,2.6,0,5.2,0,7.8c0,2.6,0,5.2,0,7.8c0,2.6,0,5.2,0,7.8c0,2.6,0,5.2,0,7.8c0,2.6,0,5.2,0,7.8c0,2.6,0,5.2,0,7.8
			c0,2.6,0,5.2,0,7.8c0,2.6,0,5.2,0,7.8c0,0.4,0,0.9,0,1.3c0,0.4,0,0.9,0,1.3s0,0.9,0,1.3s0,0.9,0,1.3s0,0.9,0,1.3
			c0,0.4,0,0.9,0,1.3c0,0.4,0,0.9,0.1,1.3s0.1,0.9,0.1,1.3c0,0.2,0,0.4,0.1,0.6c0,0.2,0,0.4,0.1,0.6c0,0.2,0,0.4,0.1,0.6
			c0,0.2,0,0.4,0.1,0.6c0,0.2,0,0.4,0.1,0.6c0,0.2,0,0.4,0.1,0.6c0,0.2,0.1,0.4,0.1,0.6c0,0.2,0.1,0.4,0.1,0.6
			c0.1,0.6,0.2,1.2,0.3,1.7c0.1,0.6,0.2,1.2,0.3,1.7s0.2,1.1,0.3,1.7c0.1,0.6,0.2,1.1,0.3,1.7c0.1,0.6,0.2,1.1,0.4,1.7
			c0.1,0.6,0.3,1.1,0.4,1.7c0.1,0.6,0.3,1.1,0.4,1.7c0.1,0.6,0.3,1.1,0.4,1.7c0.5,1.7,0.9,3.3,1.5,5c0.5,1.7,1.1,3.3,1.7,4.9
			c0.6,1.6,1.2,3.3,1.9,4.9c0.7,1.6,1.4,3.2,2.1,4.8c0.7,1.6,1.5,3.1,2.3,4.7c0.8,1.5,1.7,3.1,2.5,4.6s1.8,3,2.8,4.4
			c1,1.5,1.9,2.9,3,4.3c1.3,1.8,2.6,3.5,4,5.2c1.4,1.7,2.8,3.3,4.3,4.9s3,3.1,4.6,4.7c1.6,1.5,3.2,3,4.9,4.4
			c1.7,1.4,3.4,2.8,5.2,4.1c1.8,1.3,3.6,2.6,5.4,3.8s3.7,2.3,5.6,3.4s3.8,2.1,5.8,3.1c1.3,0.7,2.7,1.3,4.1,1.9
			c1.4,0.6,2.7,1.2,4.1,1.7c1.4,0.6,2.8,1.1,4.2,1.6c1.4,0.5,2.8,1,4.3,1.4c1.4,0.4,2.9,0.9,4.3,1.2c1.4,0.4,2.9,0.7,4.4,1.1
			c1.5,0.3,2.9,0.6,4.4,0.9c1.5,0.3,2.9,0.5,4.4,0.7c0.1,0,0.2,0,0.3,0c0.1,0,0.2,0,0.3,0c0.1,0,0.2,0,0.3,0c0.1,0,0.2,0,0.3,0
			s0.2,0,0.3,0c0.1,0,0.2,0,0.3,0c0.1,0,0.2,0,0.3,0c0.1,0,0.2,0,0.3,0c3.6,0,7.3,0,10.9,0s7.3,0,10.9,0c3.6,0,7.3,0,10.9,0
			c3.6,0,7.3,0,10.9,0s7.3,0,10.9,0s7.3,0,10.9,0c3.6,0,7.3,0,10.9,0c3.6,0,7.3,0,10.9,0c0.7,0.2,1.3,0.5,2,0.8
			c0.6,0.3,1.3,0.7,1.8,1.1c0.6,0.4,1.1,0.8,1.7,1.3s1,1,1.4,1.5c0.4,0.5,0.8,1.1,1.2,1.7c0.3,0.6,0.6,1.2,0.9,1.9
			c0.2,0.7,0.4,1.3,0.5,2c0.1,0.7,0.2,1.4,0.2,2.2c0,0.7-0.1,1.4-0.2,2.1c-0.1,0.7-0.3,1.4-0.6,2s-0.5,1.3-0.9,1.9
			c-0.3,0.6-0.7,1.2-1.2,1.7c-0.4,0.5-0.9,1.1-1.4,1.5c-0.5,0.5-1.1,0.9-1.6,1.3s-1.2,0.8-1.8,1.1c-0.6,0.3-1.3,0.6-2,0.8
			c-11.6,0-23.1,0-34.7,0c-11.6,0-23.1,0-34.7,0c-11.6,0-23.1,0-34.7,0c-11.6,0-23.1,0-34.7,0c-11.6,0-23.1,0-34.7,0
			c-11.6,0-23.1,0-34.7,0c-11.6,0-23.1,0-34.7,0s-23.1,0-34.7,0c-1.2-0.3-2.4-0.7-3.5-1.2s-2.1-1.1-3.1-1.8c-1-0.7-1.9-1.5-2.7-2.4
			c-0.8-0.9-1.5-1.8-2.2-2.8s-1.2-2-1.6-3.1s-0.8-2.2-1-3.4s-0.3-2.4-0.3-3.6c0-1.2,0.1-2.4,0.4-3.6c0.1-0.6,0.3-1.2,0.5-1.7
			c0.2-0.6,0.4-1.1,0.6-1.7c0.2-0.5,0.5-1.1,0.8-1.6c0.3-0.5,0.6-1,1-1.5s0.7-1,1.1-1.4c0.4-0.5,0.8-0.9,1.2-1.3
			c0.4-0.4,0.9-0.8,1.3-1.2c0.5-0.4,0.9-0.7,1.4-1.1c0.3-0.2,0.5-0.3,0.8-0.5c0.3-0.2,0.5-0.3,0.8-0.4c0.3-0.1,0.5-0.3,0.8-0.4
			s0.6-0.3,0.8-0.4c0.3-0.1,0.6-0.2,0.9-0.3s0.6-0.2,0.9-0.3s0.6-0.2,0.9-0.2c0.3-0.1,0.6-0.1,0.9-0.2c0.3-0.1,0.7-0.1,1-0.2
			c0.3,0,0.7-0.1,1-0.1c0.3,0,0.7-0.1,1-0.1s0.7,0,1,0c0.3,0,0.7,0,1,0s0.7,0,1,0c0.3,0,0.7,0,1,0c0.3,0,0.7,0,1,0c0.3,0,0.7,0,1,0
			c0.3,0,0.7,0,1,0s0.7,0,1-0.1s0.7-0.1,1-0.1c0.3-0.1,0.7-0.1,1-0.2c0.3-0.1,0.6-0.2,1-0.3c0.3-0.1,0.6-0.2,0.9-0.4
			c0.3-0.1,0.6-0.3,0.9-0.5c0.3-0.2,0.6-0.4,0.9-0.6c0.3-0.2,0.6-0.5,0.8-0.7c0.3-0.2,0.5-0.5,0.8-0.8s0.5-0.5,0.7-0.8
			c0.2-0.3,0.4-0.6,0.6-0.9s0.4-0.6,0.5-0.9s0.3-0.6,0.5-1c0.1-0.3,0.3-0.7,0.4-1c1.3-6.9,2.6-13.7,3.8-20.6
			c1.3-6.9,2.6-13.7,3.8-20.6c1.3-6.9,2.6-13.7,3.8-20.6s2.6-13.7,3.8-20.6s2.6-13.7,3.8-20.6c1.3-6.9,2.6-13.7,3.8-20.6
			c1.3-6.9,2.6-13.7,3.8-20.6c1.3-6.9,2.6-13.7,3.8-20.6c0.3-0.8,0.5-1.5,0.7-2.3c0.2-0.8,0.3-1.6,0.3-2.4c0-0.8,0-1.6,0-2.4
			c-0.1-0.8-0.2-1.6-0.4-2.4c-0.2-0.8-0.4-1.5-0.8-2.3c-0.3-0.7-0.7-1.4-1.1-2.1s-0.9-1.3-1.5-1.9c-0.6-0.6-1.2-1.1-1.9-1.6
			c-0.4-0.3-0.9-0.5-1.3-0.8c-0.4-0.2-0.9-0.4-1.4-0.6s-0.9-0.3-1.4-0.4c-0.5-0.1-0.9-0.2-1.4-0.3c-0.5-0.1-0.9-0.1-1.4-0.2
			c-0.5,0-1-0.1-1.5-0.1c-0.5,0-1,0-1.5,0C159.2,180.3,158.7,180.3,158.2,180.3z"/>
		<g>
			<defs>
				<path id="SVGID_1_" d="M250.8,223.7c0.2,11.6,0.4,23.2,0.7,34.7c0.3,3.1,2.9,5.4,5.9,5.4c2.7,0,5.2-2.1,5.7-4.9c0-2.3,0-4.6,0-7
					c0.3-4.5,4.3-7.7,8.2-7.2c3.3,0.4,6.1,3.4,6.3,7.2c-0.2,15.1-0.4,30.2-0.5,45.3c-0.3,4.1,2.7,7.7,6.4,8c4,0.3,7.8-3.1,7.7-7.6
					c0-9.5,0-19,0-28.6c0.4-3.1,2.9-5.5,6-5.6c3.1-0.2,5.8,1.9,6.6,4.9c-0.6,5.3,3.2,9.2,6.5,9.2c3.3,0,7.1-4.1,6.4-9.4l0.1-44.3
					H250.8z"/>
			</defs>
			<clipPath id="SVGID_2_">
				<use xlink:href="#SVGID_1_"  overflow="visible"/>
			</clipPath>
			<rect x="244.7" y="223.1" clip-path="url(#SVGID_2_)" fill="#EDDD12" width="78.2" height="10.7"/>
			<rect x="244.7" y="233.8" clip-path="url(#SVGID_2_)" fill="#E73742" width="78.2" height="10.7"/>
			<rect x="244.7" y="244.5" clip-path="url(#SVGID_2_)" fill="#27A8DD" width="78.2" height="10.7"/>
			<rect x="244.7" y="223.1" clip-path="url(#SVGID_2_)" fill="#55ADD8" width="78.2" height="10.7"/>
			<rect x="244.7" y="233.8" clip-path="url(#SVGID_2_)" fill="#EF7870" width="78.2" height="10.7"/>
			<rect x="244.7" y="244.5" clip-path="url(#SVGID_2_)" fill="#F9C155" width="78.2" height="10.7"/>
			<rect x="244.7" y="255.2" clip-path="url(#SVGID_2_)" fill="#2D2D43" width="78.2" height="10.7"/>
			<rect x="244.7" y="265.9" clip-path="url(#SVGID_2_)" fill="#55ADD8" width="78.2" height="10.7"/>
			<rect x="244.7" y="276.6" clip-path="url(#SVGID_2_)" fill="#EF7870" width="78.2" height="10.7"/>
			<rect x="244.7" y="287.3" clip-path="url(#SVGID_2_)" fill="#EDDD12" width="78.2" height="10.7"/>
			<rect x="244.7" y="298" clip-path="url(#SVGID_2_)" fill="#E73742" width="78.2" height="10.7"/>
			<rect x="244.7" y="308.6" clip-path="url(#SVGID_2_)" fill="#27A8DD" width="78.2" height="10.7"/>
			<rect x="244.7" y="287.3" clip-path="url(#SVGID_2_)" fill="#F9C155" width="78.2" height="10.7"/>
			<rect x="244.7" y="298" clip-path="url(#SVGID_2_)" fill="#2D2D43" width="78.2" height="10.7"/>
			<rect x="244.7" y="308.6" clip-path="url(#SVGID_2_)" fill="#E5E5E5" width="78.2" height="10.7"/>
		</g>
		<g>
			<defs>
				<path id="SVGID_3_" d="M361.9,223.8c0,3.5,0,6.9-0.1,10.4c-0.1,1.1,0,2.1,0.4,3c0.7,2.1,2.8,4.2,5.2,4.3c3,0.1,6.2-2.9,6.3-7.3
					c0.4-1.7,1.6-2.9,3.2-3.2c1.9-0.3,4,1,4.5,3.2c0,6.8,0.1,13.6,0.1,20.4c0.6,2.7,2.9,4.7,5.6,4.7c2.6,0,5-1.8,5.7-4.4
					c0-10.4,0-20.8-0.1-31.2"/>
			</defs>
			<clipPath id="SVGID_4_">
				<use xlink:href="#SVGID_3_"  overflow="visible"/>
			</clipPath>
			<rect x="338.3" y="193.2" clip-path="url(#SVGID_4_)" fill="#EDDD12" width="86.3" height="10.1"/>
			<rect x="338.3" y="203.3" clip-path="url(#SVGID_4_)" fill="#E73742" width="86.3" height="10.1"/>
			<rect x="338.3" y="213.5" clip-path="url(#SVGID_4_)" fill="#27A8DD" width="86.3" height="10.1"/>
			<rect x="338.3" y="223.6" clip-path="url(#SVGID_4_)" fill="#55ADD8" width="86.3" height="10.1"/>
			<rect x="338.3" y="233.7" clip-path="url(#SVGID_4_)" fill="#EF7870" width="86.3" height="10.1"/>
			<rect x="338.3" y="243.9" clip-path="url(#SVGID_4_)" fill="#F9C155" width="86.3" height="10.1"/>
			<rect x="338.3" y="254" clip-path="url(#SVGID_4_)" fill="#2D2D43" width="86.3" height="10.1"/>
			<rect x="338.3" y="264.1" clip-path="url(#SVGID_4_)" fill="#662D91" width="86.3" height="10.1"/>
			<rect x="338.3" y="274.3" clip-path="url(#SVGID_4_)" fill="#EDDD12" width="86.3" height="10.1"/>
			<rect x="338.3" y="284.4" clip-path="url(#SVGID_4_)" fill="#E73742" width="86.3" height="10.1"/>
			<rect x="338.3" y="294.5" clip-path="url(#SVGID_4_)" fill="#27A8DD" width="86.3" height="10.1"/>
			<rect x="338.3" y="304.7" clip-path="url(#SVGID_4_)" fill="#662D91" width="86.3" height="10.1"/>
		</g>
	</g>
</g>
</svg>
